<?xml version="1.0" encoding="UTF-8"?>
<svg id="_圖層_6" data-name="圖層 6" xmlns="http://www.w3.org/2000/svg" viewBox="0 0 1920 1080">
  <defs>
    <style>
      .cls-1 {
        fill: #b02737;
      }

      .cls-1, .cls-2, .cls-3, .cls-4, .cls-5, .cls-6, .cls-7, .cls-8, .cls-9, .cls-10 {
        stroke-width: 0px;
      }

      .cls-2 {
        fill: #b22a34;
      }

      .cls-3 {
        fill: #e9212c;
      }

      .cls-4 {
        fill: #eee8da;
      }

      .cls-5 {
        fill: #fee7a3;
      }

      .cls-6 {
        fill: #f3f6eb;
      }

      .cls-7 {
        fill: #fff;
      }

      .cls-8 {
        fill: #dbd299;
      }

      .cls-9 {
        fill: #e9b4b0;
      }

      .cls-10 {
        fill: #c13a40;
      }
    </style>
  </defs>
  <rect class="cls-2" x="1424.19" y="916.6" width="243.35" height="101.4"/>
  <polygon class="cls-10" points="1618.54 830.42 1568.78 916.6 1668.3 916.6 1618.54 830.42"/>
  <polygon class="cls-9" points="1618.54 853.54 1582.22 916.45 1654.86 916.45 1618.54 853.54"/>
  <polygon class="cls-7" points="1618.54 830.42 1477.8 830.42 1424.19 916.6 1568.78 916.6 1618.54 830.42"/>
  <polygon class="cls-4" points="1440.35 890.62 1583.79 890.62 1568.78 916.6 1424.19 916.6 1440.35 890.62"/>
  <polygon class="cls-6" points="1599.33 863.69 1456.6 863.69 1440.35 890.62 1583.79 890.62 1599.33 863.69"/>
  <rect class="cls-3" x="1424.19" y="916.6" width="144.49" height="50.7"/>
  <rect class="cls-1" x="1568.68" y="916.6" width="98.86" height="101.4"/>
  <rect class="cls-8" x="1604.17" y="957.16" width="32.95" height="60.84"/>
  <rect class="cls-5" x="1619.37" y="957.16" width="17.74" height="60.84"/>
  <rect class="cls-1" x="1495.17" y="807.6" width="27.88" height="22.81"/>
  <rect class="cls-4" x="1490.1" y="800" width="38.02" height="7.6"/>
  <rect class="cls-5" x="1447" y="957.16" width="22.81" height="22.81"/>
  <rect class="cls-5" x="1502.77" y="957.16" width="22.81" height="22.81"/>
</svg>