<?xml version="1.0" encoding="utf-8"?>
<!-- Generator: Adobe Illustrator 28.0.0, SVG Export Plug-In . SVG Version: 6.00 Build 0)  -->
<svg version="1.1" id="圖層_1" xmlns="http://www.w3.org/2000/svg" xmlns:xlink="http://www.w3.org/1999/xlink" x="0px" y="0px"
	 viewBox="0 0 1920 1080" style="enable-background:new 0 0 1920 1080;" xml:space="preserve">
<style type="text/css">
	.st0{fill:#D3D3D3;}
	.st1{fill:#FFFFFF;}
	.st2{fill:#EDEDED;}
</style>
<g id="_圖層_2">
	<g>
		<polygon class="st0" points="1211.8,566 1160.7,701.2 1262.9,701.2 		"/>
		<polygon class="st0" points="1211.8,606.8 1141.3,782.8 1282.3,782.8 		"/>
		<polygon class="st0" points="1211.8,659 1124.6,876.6 1299,876.6 		"/>
		<polygon class="st0" points="1211.8,704.3 1099.6,1019 1324,1019 		"/>
	</g>
	<g>
		<polygon class="st0" points="1578.3,444 1521.5,612.4 1635.1,612.4 		"/>
		<polygon class="st0" points="1578.3,494.8 1499.9,714 1656.7,714 		"/>
		<polygon class="st0" points="1578.3,559.8 1481.4,830.8 1675.2,830.8 		"/>
		<polygon class="st0" points="1578.3,616.2 1453.6,1008 1703,1008 		"/>
	</g>
	<g>
		<polygon class="st0" points="848.8,628.9 805,758.8 892.6,758.8 		"/>
		<polygon class="st0" points="848.8,668.1 788.3,837.2 909.3,837.2 		"/>
		<polygon class="st0" points="848.8,718.2 774.1,927.3 923.6,927.3 		"/>
		<polygon class="st0" points="848.8,761.8 752.6,1064 945,1064 		"/>
	</g>
	<g>
		<polygon class="st0" points="56.4,443 3.2,600.6 109.5,600.6 		"/>
		<polygon class="st0" points="56.4,490.5 -17,695.7 129.7,695.7 		"/>
		<polygon class="st0" points="56.4,551.4 -34.4,805.1 147.1,805.1 		"/>
		<polygon class="st0" points="56.4,604.2 -60.4,971 173.1,971 		"/>
	</g>
	<g>
		<polygon class="st0" points="441.3,544.8 400.9,664.6 481.7,664.6 		"/>
		<polygon class="st0" points="441.3,581 385.6,736.8 497.1,736.8 		"/>
		<polygon class="st0" points="441.3,627.2 372.4,819.9 510.2,819.9 		"/>
		<polygon class="st0" points="441.3,667.3 352.6,946 530,946 		"/>
	</g>
	<g>
		<polygon class="st0" points="263.3,534.1 208.4,697.1 318.3,697.1 		"/>
		<polygon class="st0" points="263.3,583.2 187.4,795.4 339.2,795.4 		"/>
		<polygon class="st0" points="263.3,646.2 169.5,908.4 357.1,908.4 		"/>
		<polygon class="st0" points="263.3,700.8 142.6,1080 384,1080 		"/>
	</g>
	<g>
		<polygon class="st0" points="689.5,695 652.7,804.3 726.4,804.3 		"/>
		<polygon class="st0" points="689.5,728 638.7,870.2 740.4,870.2 		"/>
		<polygon class="st0" points="689.5,770.2 626.7,946 752.4,946 		"/>
		<polygon class="st0" points="689.5,806.8 608.6,1061 770.5,1061 		"/>
	</g>
	<g>
		<polygon class="st0" points="1896.2,476 1848.6,617.2 1943.8,617.2 		"/>
		<polygon class="st0" points="1896.2,518.6 1830.4,702.4 1961.9,702.4 		"/>
		<polygon class="st0" points="1896.2,573.1 1814.9,800.3 1977.5,800.3 		"/>
		<polygon class="st0" points="1896.2,620.4 1791.6,949 2000.8,949 		"/>
	</g>
	<g>
		<polygon class="st0" points="1403.2,620 1355.6,761.2 1450.8,761.2 		"/>
		<polygon class="st0" points="1403.2,662.6 1337.4,846.4 1468.9,846.4 		"/>
		<polygon class="st0" points="1403.2,717.1 1321.9,944.3 1484.5,944.3 		"/>
		<polygon class="st0" points="1403.2,764.4 1298.6,1093 1507.8,1093 		"/>
	</g>
	<g>
		<polygon class="st0" points="1024.3,700.8 983.9,820.6 1064.7,820.6 		"/>
		<polygon class="st0" points="1024.3,737 968.6,892.8 1080.1,892.8 		"/>
		<polygon class="st0" points="1024.3,783.2 955.4,975.9 1093.2,975.9 		"/>
		<polygon class="st0" points="1024.3,823.3 935.6,1102 1113,1102 		"/>
	</g>
	<g>
		<polygon class="st1" points="24.3,679 -38.4,799.6 87,799.6 		"/>
		<polygon class="st1" points="24.3,715.4 -62.2,872.4 110.9,872.4 		"/>
		<polygon class="st1" points="24.3,762 -82.7,956 131.3,956 		"/>
		<polygon class="st1" points="24.3,802.4 -113.4,1083 162,1083 		"/>
	</g>
	<g>
		<polygon class="st1" points="199.3,565 136.6,719.7 262,719.7 		"/>
		<polygon class="st1" points="199.3,611.6 112.8,813 285.9,813 		"/>
		<polygon class="st1" points="199.3,671.4 92.3,920.2 306.3,920.2 		"/>
		<polygon class="st1" points="199.3,723.2 61.6,1083 337,1083 		"/>
	</g>
	<g>
		<polygon class="st2" points="355.8,794 310.2,880.3 401.4,880.3 		"/>
		<polygon class="st2" points="355.8,820 292.8,932.3 418.8,932.3 		"/>
		<polygon class="st2" points="355.8,853.3 278,992.2 433.7,992.2 		"/>
		<polygon class="st2" points="355.8,882.2 255.6,1083 456,1083 		"/>
	</g>
	<g>
		<polygon class="st1" points="499.3,734 438.4,838.2 560.1,838.2 		"/>
		<polygon class="st1" points="499.3,765.4 415.2,901 583.3,901 		"/>
		<polygon class="st1" points="499.3,805.7 395.4,973.3 603.1,973.3 		"/>
		<polygon class="st1" points="499.3,840.6 365.6,1083 632.9,1083 		"/>
	</g>
	<g>
		<polygon class="st1" points="619.5,741 579.7,829.1 659.3,829.1 		"/>
		<polygon class="st1" points="619.5,767.6 564.5,882.2 674.5,882.2 		"/>
		<polygon class="st1" points="619.5,801.6 551.5,943.3 687.5,943.3 		"/>
		<polygon class="st1" points="619.5,831.1 532,1036 707,1036 		"/>
	</g>
	<g>
		<polygon class="st1" points="804.7,700 752,816.4 857.4,816.4 		"/>
		<polygon class="st1" points="804.7,735.1 732,886.7 877.4,886.7 		"/>
		<polygon class="st1" points="804.7,780.1 714.8,967.4 894.6,967.4 		"/>
		<polygon class="st1" points="804.7,819.1 689,1090 920.4,1090 		"/>
	</g>
	<g>
		<polygon class="st1" points="920.5,704 880.7,792.1 960.3,792.1 		"/>
		<polygon class="st1" points="920.5,730.6 865.5,845.2 975.5,845.2 		"/>
		<polygon class="st1" points="920.5,764.6 852.5,906.3 988.5,906.3 		"/>
		<polygon class="st1" points="920.5,794.1 833,999 1008,999 		"/>
	</g>
	<g>
		<polygon class="st1" points="1093.5,736 1039.1,856.3 1148,856.3 		"/>
		<polygon class="st1" points="1093.5,772.3 1018.4,928.9 1168.7,928.9 		"/>
		<polygon class="st1" points="1093.5,818.7 1000.6,1012.3 1186.4,1012.3 		"/>
		<polygon class="st1" points="1093.5,859.1 974,1139 1213.1,1139 		"/>
	</g>
	<g>
		<polygon class="st1" points="1188,600 1142.4,700.6 1233.5,700.6 		"/>
		<polygon class="st1" points="1188,630.3 1125.1,761.3 1250.8,761.3 		"/>
		<polygon class="st1" points="1188,669.2 1110.3,831.1 1265.7,831.1 		"/>
		<polygon class="st1" points="1188,702.9 1088,937 1287.9,937 		"/>
	</g>
	<g>
		<g>
			<polygon class="st1" points="1924.3,648 1987,768.6 1861.6,768.6 			"/>
			<polygon class="st1" points="1924.3,684.4 2010.9,841.4 1837.8,841.4 			"/>
			<polygon class="st1" points="1924.3,731 2031.3,925 1817.3,925 			"/>
			<polygon class="st1" points="1924.3,771.4 2062,1052 1786.6,1052 			"/>
		</g>
		<g>
			<polygon class="st1" points="1749.3,534 1812,688.7 1686.6,688.7 			"/>
			<polygon class="st1" points="1749.3,580.6 1835.9,782 1662.8,782 			"/>
			<polygon class="st1" points="1749.3,640.4 1856.3,889.2 1642.3,889.2 			"/>
			<polygon class="st1" points="1749.3,692.2 1887,1052 1611.6,1052 			"/>
		</g>
		<g>
			<polygon class="st1" points="1592.8,763 1638.4,849.3 1547.2,849.3 			"/>
			<polygon class="st1" points="1592.8,789 1655.8,901.3 1529.8,901.3 			"/>
			<polygon class="st1" points="1592.8,822.3 1670.7,961.2 1514.9,961.2 			"/>
			<polygon class="st1" points="1592.8,851.2 1693,1052 1492.6,1052 			"/>
		</g>
		<g>
			<polygon class="st1" points="1449.4,703 1510.2,807.2 1388.5,807.2 			"/>
			<polygon class="st1" points="1449.4,734.4 1533.4,870 1365.3,870 			"/>
			<polygon class="st1" points="1449.4,774.7 1553.2,942.3 1345.5,942.3 			"/>
			<polygon class="st1" points="1449.4,809.6 1583,1052 1315.7,1052 			"/>
		</g>
		<g>
			<polygon class="st1" points="1316.1,754 1356,842.1 1276.3,842.1 			"/>
			<polygon class="st1" points="1316.1,780.6 1371.1,895.2 1261.1,895.2 			"/>
			<polygon class="st1" points="1316.1,814.6 1384.1,956.3 1248.1,956.3 			"/>
			<polygon class="st1" points="1316.1,844.1 1403.6,1049 1228.6,1049 			"/>
		</g>
	</g>
</g>
</svg>
