<?xml version="1.0" encoding="utf-8"?>
<!-- Generator: Adobe Illustrator 28.0.0, SVG Export Plug-In . SVG Version: 6.00 Build 0)  -->
<svg version="1.1" id="图层_1" xmlns="http://www.w3.org/2000/svg" xmlns:xlink="http://www.w3.org/1999/xlink" x="0px" y="0px"
	 viewBox="0 0 1920 1080" style="enable-background:new 0 0 1920 1080;" xml:space="preserve">
<style type="text/css">
	.st0{fill:#FFA70E;}
	.st1{fill:#BF2813;}
	.st2{fill:#FF751F;}
	.st3{fill:#F7D96A;}
	.st4{fill:none;stroke:#C59163;stroke-miterlimit:10;}
	.st5{fill:#C59163;}
	.st6{fill:none;stroke:#BF2813;stroke-miterlimit:10;}
	.st7{fill:none;stroke:#FFA70E;stroke-miterlimit:10;}
	.st8{fill:#FFFFFF;}
	.st9{fill:#B22A34;}
	.st10{fill:#C13A40;}
	.st11{fill:#E9B4B0;}
	.st12{fill:#EEE8DA;}
	.st13{fill:#F3F6EB;}
	.st14{fill:#E9212C;}
	.st15{fill:#B02737;}
	.st16{fill:#DBD299;}
	.st17{fill:#FEE7A3;}
	.st18{fill:#FFA70E;stroke:#BF2813;stroke-width:2;stroke-miterlimit:10;}
	.st19{fill:#FFA70E;stroke:#BF2813;stroke-miterlimit:10;}
	.st20{fill:none;stroke:#BF2813;stroke-width:2;stroke-miterlimit:10;}
	.st21{fill:#F7D96A;stroke:#C59163;stroke-miterlimit:10;}
	.st22{fill:#AF8A3C;}
	.st23{fill:#E1BE84;}
	.st24{fill:#FFF9C7;}
	.st25{fill:#E3AA50;}
	.st26{fill:#9B7D27;}
	.st27{fill:none;stroke:#9B7D27;stroke-width:4;stroke-miterlimit:10;}
	.st28{fill:#345370;}
</style>
<g>
	<polygon class="st0" points="1553.2,724.2 1496.4,779 1610,779 	"/>
	<polygon class="st0" points="1669.5,724.2 1613.8,808.7 1750.9,808.7 	"/>
	<rect x="1553.7" y="724.2" class="st0" width="115.8" height="54.8"/>
	<rect x="1605.3" y="774.3" class="st0" width="29.7" height="34.4"/>
	<polygon class="st1" points="1655.4,700.7 1621.7,730.5 1689.1,730.5 	"/>
	<polygon class="st2" points="1561.5,736.7 1517.7,779 1605.3,779 	"/>
	<rect x="1517.7" y="779" class="st2" width="87.7" height="144"/>
	<rect x="1605.3" y="808.7" class="st2" width="134.6" height="114.3"/>
	<rect x="1628.8" y="730.5" class="st2" width="53.2" height="34.4"/>
	<polygon class="st2" points="1655.4,710.1 1628.8,733.6 1682,733.6 	"/>
	<polygon class="st2" points="1655.4,707 1628.8,730.5 1682,730.5 	"/>
	<circle class="st3" cx="1556" cy="784.5" r="14.1"/>
	<line class="st4" x1="1541.9" y1="784.5" x2="1570.1" y2="784.5"/>
	<line class="st4" x1="1556" y1="770.4" x2="1556" y2="798.6"/>
	<rect x="1528.6" y="916.7" class="st3" width="12.5" height="6.3"/>
	<rect x="1541.2" y="916.7" class="st3" width="12.5" height="6.3"/>
	<rect x="1533.3" y="910.5" class="st3" width="12.5" height="6.3"/>
	<rect x="1580.3" y="898" class="st3" width="12.5" height="6.3"/>
	<rect x="1613.2" y="833.8" class="st3" width="12.5" height="6.3"/>
	<rect x="1619.4" y="827.5" class="st3" width="12.5" height="6.3"/>
	<rect x="1617.9" y="894.8" class="st3" width="12.5" height="6.3"/>
	<rect x="1699.2" y="818.1" class="st3" width="12.5" height="6.3"/>
	<rect x="1693" y="824.4" class="st3" width="12.5" height="6.3"/>
	<rect x="1703.9" y="824.4" class="st3" width="12.5" height="6.3"/>
	<rect x="1522.4" y="802.5" class="st3" width="12.5" height="6.3"/>
	<rect x="1567.8" y="807.2" class="st3" width="12.5" height="6.3"/>
	<rect x="1575.6" y="800.9" class="st3" width="12.5" height="6.3"/>
	<path class="st3" d="M1644.2,747c0-7.6,4.6-13.8,10.2-13.8s10.2,6.2,10.2,13.8"/>
	<polyline class="st3" points="1644.2,745.9 1644.2,758.7 1664.6,758.7 1664.6,746.3 	"/>
	<line class="st4" x1="1645" y1="747" x2="1665.4" y2="747"/>
	<line class="st4" x1="1654.4" y1="734.2" x2="1654.4" y2="757.6"/>
	<path class="st3" d="M1528.4,863.4c0-10.3,4.6-18.7,10.2-18.7s10.2,8.3,10.2,18.7"/>
	<polyline class="st3" points="1528.4,862 1528.4,879.2 1548.8,879.2 1548.8,862.5 	"/>
	<line class="st4" x1="1529.2" y1="863.4" x2="1549.6" y2="863.4"/>
	<line class="st4" x1="1538.6" y1="846.2" x2="1538.6" y2="877.7"/>
	<path class="st3" d="M1573.8,863.4c0-10.3,4.6-18.7,10.2-18.7s10.2,8.3,10.2,18.7"/>
	<polyline class="st3" points="1573.8,862 1573.8,879.2 1594.2,879.2 1594.2,862.5 	"/>
	<line class="st4" x1="1574.6" y1="863.4" x2="1594.9" y2="863.4"/>
	<line class="st4" x1="1584" y1="846.2" x2="1584" y2="877.7"/>
	<rect x="1657" y="883.9" class="st5" width="25" height="39.1"/>
	<circle class="st5" cx="1669.5" cy="882.3" r="12.5"/>
	<polyline class="st6" points="1703.2,862 1669.5,832.2 1635.8,862 	"/>
	<line class="st7" x1="1635.9" y1="861.2" x2="1635.9" y2="922.2"/>
	<line class="st7" x1="1703.2" y1="861.2" x2="1703.2" y2="922.2"/>
</g>
<g>
	<g>
		<rect x="518.8" y="854.7" class="st0" width="190.1" height="41.4"/>
		<polygon class="st0" points="606.9,831.7 546.3,896.1 667.5,896.1 		"/>
		<rect x="497.3" y="727.4" class="st1" width="18.4" height="42.9"/>
		<polygon class="st0" points="496.7,745.8 468.2,773.4 525.2,773.4 		"/>
		<rect x="299.5" y="880.7" class="st4" width="121.1" height="92"/>
		<polygon class="st0" points="223.6,825.5 196.8,853.2 250.5,853.2 		"/>
		<polygon class="st0" points="457.4,842.4 258.1,842.4 282.6,787.2 429.8,787.2 		"/>
		<rect x="253.5" y="833.2" class="st0" width="207" height="9.2"/>
		<rect x="160" y="867" class="st2" width="102.7" height="49.1"/>
		<rect x="262.7" y="851.6" class="st3" width="188.6" height="121.1"/>
		<rect x="160" y="903.7" class="st1" width="102.7" height="12.3"/>
		<rect x="160" y="916" class="st3" width="102.7" height="56.7"/>
		<rect x="187.6" y="963.5" class="st1" width="65.9" height="4.6"/>
		<polygon class="st1" points="357,777.3 285.7,851.6 428.3,851.6 		"/>
		<polygon class="st3" points="357,789.5 298,851.6 416,851.6 		"/>
		<polygon class="st3" points="223.6,834.8 204.5,853.2 242.8,853.2 		"/>
		<rect x="253.5" y="842.4" class="st1" width="44.5" height="9.2"/>
		<rect x="462" y="773.4" class="st1" width="67.5" height="9.2"/>
		<rect x="647.5" y="896.1" class="st1" width="67.5" height="9.2"/>
		<rect x="334.8" y="856.2" class="st0" width="44.5" height="4.6"/>
		<rect x="416" y="842.4" class="st1" width="44.5" height="9.2"/>
		<rect x="204.5" y="853.2" class="st3" width="38.3" height="13.8"/>
		<path class="st4" d="M213.7,858.5c0-5.5,4.5-10,10-10s10,4.5,10,10"/>
		<polyline class="st4" points="213.7,857.8 213.7,867 233.6,867 233.6,858 		"/>
		<line class="st4" x1="233.6" y1="858.5" x2="233.6" y2="857.8"/>
		<g>
			<polygon class="st4" points="246.6,962.8 193,962.8 193,947.4 193,932.1 246.6,932.1 246.6,948.3 			"/>
			<line class="st4" x1="193" y1="947.4" x2="246.6" y2="947.4"/>
			<line class="st4" x1="220.6" y1="932.1" x2="220.6" y2="962.8"/>
		</g>
		<line class="st4" x1="214.4" y1="858.5" x2="234.4" y2="858.5"/>
		<line class="st4" x1="223.6" y1="849.3" x2="223.6" y2="866.2"/>
		<circle class="st4" cx="357" cy="827.8" r="13.8"/>
		<line class="st4" x1="343.2" y1="827.8" x2="370.8" y2="827.8"/>
		<line class="st4" x1="357" y1="814" x2="357" y2="841.7"/>
		<rect x="348.6" y="929.8" class="st5" width="24.5" height="42.9"/>
		<rect x="272.7" y="873.8" class="st5" width="12.3" height="6.1"/>
		<rect x="428.3" y="896.1" class="st5" width="12.3" height="6.1"/>
		<rect x="271.9" y="912.9" class="st5" width="12.3" height="6.1"/>
		<rect x="278" y="919.1" class="st5" width="12.3" height="6.1"/>
		<rect x="276.5" y="954.3" class="st5" width="12.3" height="6.1"/>
		<rect x="270.4" y="960.5" class="st5" width="12.3" height="6.1"/>
		<rect x="282.6" y="960.5" class="st5" width="12.3" height="6.1"/>
		<rect x="429.8" y="937.5" class="st5" width="12.3" height="6.1"/>
		<rect x="423.7" y="943.6" class="st5" width="12.3" height="6.1"/>
		<rect x="321.8" y="880" class="st4" width="79.7" height="92.8"/>
		<rect x="436" y="943.6" class="st5" width="12.3" height="6.1"/>
		<rect x="294.9" y="871.5" class="st1" width="130.3" height="9.2"/>
		<rect x="468.2" y="781.1" class="st1" width="50.6" height="191.6"/>
		<rect x="518.8" y="896.1" class="st1" width="188.6" height="76.7"/>
		<polygon class="st1" points="496.7,755 477.7,773.4 515.7,773.4 		"/>
		<rect x="494.2" y="722.8" class="st0" width="24.5" height="4.6"/>
		<polygon class="st1" points="606.9,842.4 557.1,896.1 656.7,896.1 		"/>
		<rect x="636.8" y="836.3" class="st1" width="23" height="18.4"/>
		<rect x="632.2" y="824" class="st0" width="30.7" height="12.3"/>
		<line class="st7" x1="262.7" y1="916" x2="262.7" y2="972.7"/>
		<line class="st6" x1="298" y1="850.8" x2="416" y2="850.8"/>
		<line class="st7" x1="263.5" y1="867.7" x2="263.5" y2="852.4"/>
		<line class="st7" x1="452.1" y1="852.4" x2="452.1" y2="973.5"/>
		<line class="st7" x1="519.5" y1="896.1" x2="519.5" y2="972.7"/>
		<line class="st7" x1="657.5" y1="896.1" x2="657.5" y2="972.7"/>
		<circle class="st3" cx="606.9" cy="880" r="13.8"/>
		<line class="st4" x1="593.1" y1="880" x2="620.7" y2="880"/>
		<line class="st4" x1="606.9" y1="866.2" x2="606.9" y2="893.8"/>
		<rect x="595.4" y="934.4" class="st5" width="24.5" height="38.3"/>
		<rect x="537.2" y="920.6" class="st3" width="18.4" height="29.1"/>
		<rect x="564.8" y="920.6" class="st3" width="18.4" height="29.1"/>
		<line class="st4" x1="537.2" y1="935.9" x2="555.5" y2="935.9"/>
		<line class="st4" x1="564.8" y1="936.7" x2="583.2" y2="936.7"/>
		<line class="st4" x1="573.2" y1="949.7" x2="573.2" y2="920.6"/>
		<rect x="675.1" y="920.6" class="st3" width="18.4" height="29.1"/>
		<line class="st4" x1="675.1" y1="936.7" x2="693.5" y2="936.7"/>
		<line class="st4" x1="683.6" y1="949.7" x2="683.6" y2="920.6"/>
		<line class="st4" x1="545.6" y1="920.6" x2="545.6" y2="949.7"/>
		<rect x="578.5" y="899.1" class="st3" width="12.3" height="6.1"/>
		<rect x="584.7" y="905.3" class="st3" width="12.3" height="6.1"/>
		<rect x="685.9" y="957.4" class="st3" width="12.3" height="6.1"/>
		<rect x="692" y="963.5" class="st3" width="12.3" height="6.1"/>
		<rect x="630.7" y="906.8" class="st3" width="12.3" height="6.1"/>
		<rect x="552.5" y="966.6" class="st3" width="12.3" height="6.1"/>
		<rect x="486.6" y="966.6" class="st3" width="12.3" height="6.1"/>
		<path class="st3" d="M484.8,806.5c0-7.5,4.5-13.5,10-13.5s10,6,10,13.5"/>
		<polyline class="st3" points="484.8,805.4 484.8,817.9 504.8,817.9 504.8,805.8 		"/>
		<line class="st4" x1="485.6" y1="806.5" x2="505.5" y2="806.5"/>
		<line class="st4" x1="494.8" y1="794" x2="494.8" y2="816.8"/>
		<path class="st3" d="M484.8,867.8c0-7.5,4.5-13.5,10-13.5s10,6,10,13.5"/>
		<polyline class="st3" points="484.8,866.7 484.8,879.2 504.8,879.2 504.8,867.1 		"/>
		<line class="st4" x1="485.6" y1="867.8" x2="505.5" y2="867.8"/>
		<line class="st4" x1="494.8" y1="855.3" x2="494.8" y2="878.2"/>
		<path class="st3" d="M484.8,930.6c0-7.5,4.5-13.5,10-13.5s10,6,10,13.5"/>
		<polyline class="st3" points="484.8,929.6 484.8,942.1 504.8,942.1 504.8,930 		"/>
		<line class="st4" x1="485.6" y1="930.6" x2="505.5" y2="930.6"/>
		<line class="st4" x1="494.8" y1="918.2" x2="494.8" y2="941"/>
		<circle class="st5" cx="607.7" cy="932.9" r="12.3"/>
		<circle class="st5" cx="360.8" cy="928.3" r="12.3"/>
	</g>
	<g id="_圖層_7">
		<path class="st8" d="M0,903c0,0,353,143,726,12c132.5-46.5,360-208,740.9-54.7C1572.1,902.6,1689,968,1920,875.6V1080H0V903z"/>
		<g>
			<rect x="-13.4" y="921" class="st9" width="153.9" height="64.1"/>
			<polygon class="st10" points="109.5,866.5 78.1,921 141,921 			"/>
			<polygon class="st11" points="109.5,881.2 86.6,921 132.5,921 			"/>
			<polygon class="st8" points="109.5,866.5 20.5,866.5 -13.4,921 78.1,921 			"/>
			<polygon class="st12" points="-3.2,904.6 87.6,904.6 78.1,921 -13.4,921 			"/>
			<polygon class="st13" points="97.4,887.6 7.1,887.6 -3.2,904.6 87.6,904.6 			"/>
			<rect x="-13.4" y="921" class="st14" width="91.4" height="32.1"/>
			<rect x="78" y="921" class="st15" width="62.5" height="64.1"/>
			<rect x="100.4" y="946.7" class="st16" width="20.8" height="38.5"/>
			<rect x="110.1" y="946.7" class="st17" width="11.2" height="38.5"/>
			<rect x="31.5" y="852.1" class="st15" width="17.6" height="14.4"/>
			<rect x="28.3" y="847.3" class="st12" width="24" height="4.8"/>
			<rect x="1" y="946.7" class="st17" width="14.4" height="14.4"/>
			<rect x="36.3" y="946.7" class="st17" width="14.4" height="14.4"/>
		</g>
		<g>
			<polygon class="st0" points="1788.7,758.8 1705.8,840.2 1871.7,840.2 			"/>
			<polygon class="st18" points="1787.9,772.9 1718.3,838.6 1857.6,838.6 			"/>
			<polygon class="st0" points="1888.9,835.5 1870.1,854.3 1907.7,854.3 			"/>
			<polygon class="st19" points="1888.9,839.4 1874.8,853.5 1903,853.5 			"/>
			<polygon class="st0" points="1920.2,863.7 1871.7,899.7 1939,899.7 			"/>
			<circle class="st3" cx="1787.9" cy="817.5" r="14.1"/>
			<line class="st4" x1="1773.9" y1="817.5" x2="1802" y2="817.5"/>
			<line class="st4" x1="1787.9" y1="803.4" x2="1787.9" y2="831.6"/>
			<rect x="1718.3" y="840.2" class="st3" width="139.3" height="115.8"/>
			<rect x="1874.8" y="854.3" class="st3" width="28.2" height="9.4"/>
			<rect x="1801.3" y="899.7" class="st3" width="123.7" height="56.3"/>
			<rect x="1632.2" y="899.7" class="st3" width="123.7" height="56.3"/>
			<rect x="1859.2" y="863.7" class="st0" width="61" height="36"/>
			<rect x="1643.2" y="860.5" class="st0" width="75.1" height="39.1"/>
			<polygon class="st0" points="1643.2,860.5 1619.7,899.7 1661.9,899.7 			"/>
			<rect x="1733.2" y="863" class="st20" width="18.8" height="29.7"/>
			<line class="st6" x1="1733.2" y1="878.7" x2="1752" y2="878.7"/>
			<line class="st6" x1="1741.9" y1="863" x2="1741.9" y2="892.8"/>
			<rect x="1778.6" y="863" class="st20" width="18.8" height="29.7"/>
			<line class="st6" x1="1778.6" y1="878.7" x2="1797.4" y2="878.7"/>
			<line class="st6" x1="1787.2" y1="863" x2="1787.2" y2="892.8"/>
			<rect x="1822.5" y="863" class="st20" width="18.8" height="29.7"/>
			<line class="st6" x1="1822.5" y1="878.7" x2="1841.2" y2="878.7"/>
			<line class="st6" x1="1831.1" y1="863" x2="1831.1" y2="892.8"/>
			<path class="st21" d="M1642.9,930.1c0-7.7,3.4-14,7.6-14s7.6,6.3,7.6,14"/>
			<polyline class="st21" points="1642.9,929 1642.9,941.9 1658.2,941.9 1658.2,929.4 			"/>
			<line class="st4" x1="1643.5" y1="930.1" x2="1658.8" y2="930.1"/>
			<line class="st4" x1="1650.6" y1="917.1" x2="1650.6" y2="940.8"/>
			<path class="st21" d="M1682.1,930.1c0-7.7,3.4-14,7.6-14s7.6,6.3,7.6,14"/>
			<polyline class="st21" points="1682.1,929 1682.1,941.9 1697.4,941.9 1697.4,929.4 			"/>
			<line class="st4" x1="1682.7" y1="930.1" x2="1697.9" y2="930.1"/>
			<line class="st4" x1="1689.7" y1="917.1" x2="1689.7" y2="940.8"/>
			<path class="st21" d="M1866.8,930.1c0-7.7,3.4-14,7.6-14s7.6,6.3,7.6,14"/>
			<polyline class="st21" points="1866.8,929 1866.8,941.9 1882.1,941.9 1882.1,929.4 			"/>
			<line class="st4" x1="1867.4" y1="930.1" x2="1882.7" y2="930.1"/>
			<line class="st4" x1="1874.4" y1="917.1" x2="1874.4" y2="940.8"/>
			<path class="st21" d="M1899.7,930.1c0-7.7,3.4-14,7.6-14s7.6,6.3,7.6,14"/>
			<polyline class="st21" points="1899.7,929 1899.7,941.9 1914.9,941.9 1914.9,929.4 			"/>
			<line class="st4" x1="1900.2" y1="930.1" x2="1915.5" y2="930.1"/>
			<line class="st4" x1="1907.3" y1="917.1" x2="1907.3" y2="940.8"/>
			<line class="st7" x1="1717.5" y1="899.7" x2="1717.5" y2="956"/>
			<line class="st7" x1="1859.9" y1="899.7" x2="1859.9" y2="956"/>
			<rect x="1730.8" y="949.7" class="st1" width="117.4" height="6.3"/>
			<rect x="1697.9" y="904.3" class="st5" width="12.5" height="6.3"/>
			<rect x="1727.7" y="848" class="st5" width="12.5" height="6.3"/>
			<rect x="1823.2" y="844.9" class="st5" width="12.5" height="6.3"/>
			<rect x="1821.6" y="927.8" class="st5" width="12.5" height="6.3"/>
			<rect x="1733.9" y="929.4" class="st5" width="12.5" height="6.3"/>
			<rect x="1827.9" y="934.1" class="st5" width="12.5" height="6.3"/>
			<rect x="1815.3" y="934.1" class="st5" width="12.5" height="6.3"/>
			<rect x="1901.4" y="901.6" class="st5" width="10.6" height="5.3"/>
			<rect x="1908.1" y="906.9" class="st5" width="10.6" height="5.3"/>
			<rect x="1875.2" y="947.6" class="st5" width="10.6" height="5.3"/>
			<rect x="1740.2" y="935.7" class="st5" width="12.5" height="6.3"/>
			<rect x="1693.2" y="948.2" class="st5" width="12.5" height="6.3"/>
			<rect x="1636.9" y="946.6" class="st5" width="12.5" height="6.3"/>
			<rect x="1773.1" y="921.6" class="st5" width="25" height="28.2"/>
			<circle class="st5" cx="1785.6" cy="920" r="12.5"/>
		</g>
		<g>
			<rect x="1367.8" y="876.8" class="st22" width="168.7" height="70.3"/>
			<polygon class="st23" points="1502.5,817.1 1468,876.8 1537,876.8 			"/>
			<polygon class="st24" points="1502.5,833.1 1477.3,876.7 1527.7,876.7 			"/>
			<polygon class="st8" points="1502.5,817.1 1404.9,817.1 1367.8,876.8 1468,876.8 			"/>
			<polygon class="st12" points="1379,858.8 1478.4,858.8 1468,876.8 1367.8,876.8 			"/>
			<polygon class="st13" points="1489.2,840.2 1390.3,840.2 1379,858.8 1478.4,858.8 			"/>
			<rect x="1367.8" y="876.8" class="st25" width="100.2" height="35.1"/>
			<rect x="1467.9" y="876.8" class="st26" width="68.5" height="70.3"/>
			<rect x="1492.5" y="905" class="st16" width="22.8" height="42.2"/>
			<rect x="1503.1" y="905" class="st17" width="12.3" height="42.2"/>
			<rect x="1417" y="801.3" class="st26" width="19.3" height="15.8"/>
			<rect x="1413.5" y="796" class="st12" width="26.4" height="5.3"/>
			<rect x="1385.4" y="905" class="st17" width="15.8" height="15.8"/>
			<rect x="1424" y="905" class="st17" width="15.8" height="15.8"/>
			<line class="st27" x1="1508.8" y1="799.5" x2="1494.7" y2="799.5"/>
			<line class="st27" x1="1501.8" y1="792.5" x2="1501.8" y2="817.1"/>
		</g>
	</g>
	<g id="_圖層_8">
		<g>
			<g>
				<polygon class="st28" points="754.2,832.6 734.2,866.8 774.2,866.8 				"/>
				<polygon class="st28" points="754.2,842.9 726.7,887.4 781.7,887.4 				"/>
				<polygon class="st28" points="754.2,856.1 720.2,911 788.2,911 				"/>
				<polygon class="st28" points="754.2,867.5 710.4,947 798,947 				"/>
			</g>
			<rect x="748.1" y="947" class="st28" width="11.9" height="22.8"/>
		</g>
		<g>
			<g>
				<polygon class="st28" points="1199.2,805.2 1184.7,830 1213.7,830 				"/>
				<polygon class="st28" points="1199.2,812.7 1179.2,844.9 1219.2,844.9 				"/>
				<polygon class="st28" points="1199.2,822.2 1174.5,862.1 1223.9,862.1 				"/>
				<polygon class="st28" points="1199.2,830.5 1167.4,888.2 1231,888.2 				"/>
			</g>
			<rect x="1194.8" y="888.2" class="st28" width="8.7" height="16.5"/>
		</g>
		<g>
			<g>
				<polygon class="st28" points="1592.3,935 1578.7,958.3 1606,958.3 				"/>
				<polygon class="st28" points="1592.3,942 1573.5,972.4 1611.2,972.4 				"/>
				<polygon class="st28" points="1592.3,951.1 1569.1,988.6 1615.6,988.6 				"/>
				<polygon class="st28" points="1592.3,958.9 1562.4,1013.2 1622.3,1013.2 				"/>
			</g>
			<rect x="1588.2" y="1013.2" class="st28" width="8.2" height="15.6"/>
		</g>
		<g>
			<g>
				<polygon class="st28" points="322.2,916.2 307.7,941 336.7,941 				"/>
				<polygon class="st28" points="322.2,923.7 302.2,955.9 342.2,955.9 				"/>
				<polygon class="st28" points="322.2,933.2 297.5,973.1 346.9,973.1 				"/>
				<polygon class="st28" points="322.2,941.5 290.4,999.2 354,999.2 				"/>
			</g>
			<rect x="317.8" y="999.2" class="st28" width="8.7" height="16.5"/>
		</g>
	</g>
</g>
</svg>
